<svg xmlns="http://www.w3.org/2000/svg" width="160" height="128" viewBox="0 0 160 128" shape-rendering="crispEdges"><ellipse cx="82" cy="114" rx="66" ry="10" fill="#2b2118" opacity=".35"/><path d="M25 45 82 18l58 27-58 24Z" fill="#3a2925" stroke="#2b2118" stroke-width="3"/><path d="M25 45 82 69v42L25 89Z" fill="#e8c98a" stroke="#2b2118" stroke-width="3"/><path d="M82 69 140 45v43l-58 23Z" fill="#8b6748" stroke="#2b2118" stroke-width="3"/><path d="M58 76 77 69v34l-19 7Z" fill="#6b4a32" stroke="#2b2118" stroke-width="2"/><rect x="62" y="82" width="4" height="4" fill="#c9c0a7"/><path d="M99 69 121 61v17l-22 8Z" fill="#d9915e" stroke="#2b2118" stroke-width="2"/><path d="M110 65v17m-11-4 22-8" stroke="#6b4a32" stroke-width="2"/><path d="M34 52v38M30 63l46 17M87 70l49-19" stroke="#b08a5a" stroke-width="3"/></svg>